<mxfile host="app.diagrams.net" modified="2020-07-11T16:04:56.594Z" agent="5.0 (Windows)" etag="brut-5V3OV9voHXFRzhG" version="13.4.2" type="github">
  <diagram id="oIxy8gUb29O4Rgqkvydm" name="Page-1">
    <mxGraphModel dx="2899" dy="927" grid="1" gridSize="10" guides="1" tooltips="1" connect="1" arrows="1" fold="1" page="1" pageScale="1" pageWidth="1169" pageHeight="827" math="0" shadow="0">
      <root>
        <mxCell id="0" />
        <mxCell id="1" parent="0" />
        <mxCell id="_V3Y3eylf52kLlvXlaU1-1" value="&lt;font style=&quot;font-size: 16px&quot;&gt;PC&lt;/font&gt;" style="rounded=0;whiteSpace=wrap;html=1;direction=south;" parent="1" vertex="1">
          <mxGeometry x="80" y="414" width="40" height="70" as="geometry" />
        </mxCell>
        <mxCell id="_V3Y3eylf52kLlvXlaU1-2" value="&lt;font style=&quot;font-size: 16px&quot;&gt;InstrctionMem&lt;/font&gt;" style="whiteSpace=wrap;html=1;aspect=fixed;" parent="1" vertex="1">
          <mxGeometry x="170" y="380" width="129" height="129" as="geometry" />
        </mxCell>
        <mxCell id="_V3Y3eylf52kLlvXlaU1-48" value="" style="group" parent="1" vertex="1" connectable="0">
          <mxGeometry x="190" y="240" width="30" height="100" as="geometry" />
        </mxCell>
        <mxCell id="_V3Y3eylf52kLlvXlaU1-47" value="" style="group" parent="_V3Y3eylf52kLlvXlaU1-48" vertex="1" connectable="0">
          <mxGeometry width="30" height="100" as="geometry" />
        </mxCell>
        <mxCell id="_V3Y3eylf52kLlvXlaU1-41" value="" style="endArrow=none;html=1;shadow=0;" parent="_V3Y3eylf52kLlvXlaU1-47" edge="1">
          <mxGeometry width="50" height="50" relative="1" as="geometry">
            <mxPoint x="30" y="75" as="sourcePoint" />
            <mxPoint x="30" y="25" as="targetPoint" />
          </mxGeometry>
        </mxCell>
        <mxCell id="_V3Y3eylf52kLlvXlaU1-42" value="" style="endArrow=none;html=1;shadow=0;" parent="_V3Y3eylf52kLlvXlaU1-47" edge="1">
          <mxGeometry width="50" height="50" relative="1" as="geometry">
            <mxPoint y="100" as="sourcePoint" />
            <mxPoint x="30" y="75" as="targetPoint" />
          </mxGeometry>
        </mxCell>
        <mxCell id="_V3Y3eylf52kLlvXlaU1-43" value="" style="endArrow=none;html=1;shadow=0;" parent="_V3Y3eylf52kLlvXlaU1-47" edge="1">
          <mxGeometry width="50" height="50" relative="1" as="geometry">
            <mxPoint as="sourcePoint" />
            <mxPoint x="30" y="25" as="targetPoint" />
          </mxGeometry>
        </mxCell>
        <mxCell id="_V3Y3eylf52kLlvXlaU1-44" value="" style="endArrow=none;html=1;shadow=0;" parent="_V3Y3eylf52kLlvXlaU1-47" edge="1">
          <mxGeometry width="50" height="50" relative="1" as="geometry">
            <mxPoint y="43.75" as="sourcePoint" />
            <mxPoint as="targetPoint" />
          </mxGeometry>
        </mxCell>
        <mxCell id="_V3Y3eylf52kLlvXlaU1-45" value="" style="endArrow=none;html=1;shadow=0;" parent="_V3Y3eylf52kLlvXlaU1-47" edge="1">
          <mxGeometry width="50" height="50" relative="1" as="geometry">
            <mxPoint y="56.25" as="sourcePoint" />
            <mxPoint y="100" as="targetPoint" />
          </mxGeometry>
        </mxCell>
        <mxCell id="_V3Y3eylf52kLlvXlaU1-46" value="" style="endArrow=none;html=1;shadow=0;rounded=0;" parent="_V3Y3eylf52kLlvXlaU1-47" edge="1">
          <mxGeometry width="50" height="50" relative="1" as="geometry">
            <mxPoint y="56.25" as="sourcePoint" />
            <mxPoint y="43.75" as="targetPoint" />
            <Array as="points">
              <mxPoint x="7.5" y="50" />
            </Array>
          </mxGeometry>
        </mxCell>
        <mxCell id="_V3Y3eylf52kLlvXlaU1-49" value="" style="endArrow=classic;html=1;shadow=0;rounded=0;" parent="1" edge="1">
          <mxGeometry width="50" height="50" relative="1" as="geometry">
            <mxPoint x="120" y="474" as="sourcePoint" />
            <mxPoint x="190" y="320" as="targetPoint" />
            <Array as="points">
              <mxPoint x="140" y="474" />
              <mxPoint x="140" y="320" />
            </Array>
          </mxGeometry>
        </mxCell>
        <mxCell id="_V3Y3eylf52kLlvXlaU1-50" value="" style="endArrow=classic;html=1;shadow=0;" parent="1" edge="1">
          <mxGeometry width="50" height="50" relative="1" as="geometry">
            <mxPoint x="140" y="260" as="sourcePoint" />
            <mxPoint x="190" y="260" as="targetPoint" />
          </mxGeometry>
        </mxCell>
        <mxCell id="_V3Y3eylf52kLlvXlaU1-51" value="4" style="edgeLabel;html=1;align=center;verticalAlign=middle;resizable=0;points=[];fontSize=16;" parent="_V3Y3eylf52kLlvXlaU1-50" vertex="1" connectable="0">
          <mxGeometry x="-0.64" y="-2" relative="1" as="geometry">
            <mxPoint x="11" y="8" as="offset" />
          </mxGeometry>
        </mxCell>
        <mxCell id="_V3Y3eylf52kLlvXlaU1-52" value="" style="endArrow=classic;html=1;shadow=0;fontSize=16;" parent="1" edge="1">
          <mxGeometry width="50" height="50" relative="1" as="geometry">
            <mxPoint x="140" y="474" as="sourcePoint" />
            <mxPoint x="170" y="474" as="targetPoint" />
          </mxGeometry>
        </mxCell>
        <mxCell id="_V3Y3eylf52kLlvXlaU1-53" value="" style="endArrow=classic;html=1;shadow=0;fontSize=16;" parent="1" edge="1">
          <mxGeometry width="50" height="50" relative="1" as="geometry">
            <mxPoint x="299" y="414" as="sourcePoint" />
            <mxPoint x="350" y="414" as="targetPoint" />
          </mxGeometry>
        </mxCell>
        <mxCell id="_V3Y3eylf52kLlvXlaU1-54" value="Inst" style="text;html=1;align=center;verticalAlign=middle;resizable=0;points=[];autosize=1;fontSize=16;" parent="1" vertex="1">
          <mxGeometry x="300" y="390" width="40" height="20" as="geometry" />
        </mxCell>
        <mxCell id="_V3Y3eylf52kLlvXlaU1-55" value="" style="endArrow=classic;html=1;shadow=0;fontSize=16;" parent="1" edge="1">
          <mxGeometry width="50" height="50" relative="1" as="geometry">
            <mxPoint x="220" y="290" as="sourcePoint" />
            <mxPoint x="350" y="290" as="targetPoint" />
          </mxGeometry>
        </mxCell>
        <mxCell id="_V3Y3eylf52kLlvXlaU1-56" value="PC+4" style="edgeLabel;html=1;align=center;verticalAlign=middle;resizable=0;points=[];fontSize=16;" parent="_V3Y3eylf52kLlvXlaU1-55" vertex="1" connectable="0">
          <mxGeometry x="0.7846" relative="1" as="geometry">
            <mxPoint x="-56" y="-20" as="offset" />
          </mxGeometry>
        </mxCell>
        <mxCell id="_V3Y3eylf52kLlvXlaU1-57" value="" style="rounded=0;whiteSpace=wrap;html=1;fontSize=16;rotation=90;" parent="1" vertex="1">
          <mxGeometry x="200" y="340" width="340" height="30" as="geometry" />
        </mxCell>
        <mxCell id="_V3Y3eylf52kLlvXlaU1-58" value="RF" style="whiteSpace=wrap;html=1;aspect=fixed;fontSize=16;" parent="1" vertex="1">
          <mxGeometry x="550" y="380" width="110" height="110" as="geometry" />
        </mxCell>
        <mxCell id="_V3Y3eylf52kLlvXlaU1-59" value="" style="endArrow=classic;html=1;shadow=0;fontSize=16;entryX=0;entryY=0.25;entryDx=0;entryDy=0;" parent="1" target="_V3Y3eylf52kLlvXlaU1-58" edge="1">
          <mxGeometry width="50" height="50" relative="1" as="geometry">
            <mxPoint x="380" y="408" as="sourcePoint" />
            <mxPoint x="440" y="360" as="targetPoint" />
          </mxGeometry>
        </mxCell>
        <mxCell id="_V3Y3eylf52kLlvXlaU1-60" value="rs" style="edgeLabel;html=1;align=center;verticalAlign=middle;resizable=0;points=[];fontSize=16;" parent="_V3Y3eylf52kLlvXlaU1-59" vertex="1" connectable="0">
          <mxGeometry x="-0.7999" y="3" relative="1" as="geometry">
            <mxPoint as="offset" />
          </mxGeometry>
        </mxCell>
        <mxCell id="_V3Y3eylf52kLlvXlaU1-61" value="" style="endArrow=classic;html=1;shadow=0;fontSize=16;entryX=0.018;entryY=0.4;entryDx=0;entryDy=0;entryPerimeter=0;" parent="1" target="_V3Y3eylf52kLlvXlaU1-58" edge="1">
          <mxGeometry width="50" height="50" relative="1" as="geometry">
            <mxPoint x="380" y="424" as="sourcePoint" />
            <mxPoint x="430" y="375" as="targetPoint" />
            <Array as="points">
              <mxPoint x="460" y="424" />
            </Array>
          </mxGeometry>
        </mxCell>
        <mxCell id="_V3Y3eylf52kLlvXlaU1-62" value="&lt;div&gt;rt&lt;/div&gt;" style="edgeLabel;html=1;align=center;verticalAlign=middle;resizable=0;points=[];fontSize=16;" parent="_V3Y3eylf52kLlvXlaU1-61" vertex="1" connectable="0">
          <mxGeometry x="-0.8488" y="1" relative="1" as="geometry">
            <mxPoint x="4" as="offset" />
          </mxGeometry>
        </mxCell>
        <mxCell id="_V3Y3eylf52kLlvXlaU1-67" value="" style="endArrow=classic;html=1;shadow=0;fontSize=10;entryX=0.72;entryY=1.017;entryDx=0;entryDy=0;entryPerimeter=0;" parent="1" target="_V3Y3eylf52kLlvXlaU1-82" edge="1">
          <mxGeometry width="50" height="50" relative="1" as="geometry">
            <mxPoint x="380" y="444" as="sourcePoint" />
            <mxPoint x="460" y="444" as="targetPoint" />
            <Array as="points">
              <mxPoint x="440" y="444" />
              <mxPoint x="440" y="632" />
            </Array>
          </mxGeometry>
        </mxCell>
        <mxCell id="_V3Y3eylf52kLlvXlaU1-83" value="rd" style="edgeLabel;html=1;align=center;verticalAlign=middle;resizable=0;points=[];fontSize=16;" parent="_V3Y3eylf52kLlvXlaU1-67" vertex="1" connectable="0">
          <mxGeometry x="-0.9287" y="-1" relative="1" as="geometry">
            <mxPoint as="offset" />
          </mxGeometry>
        </mxCell>
        <mxCell id="_V3Y3eylf52kLlvXlaU1-69" value="" style="endArrow=classic;html=1;shadow=0;fontSize=10;entryX=0;entryY=0.5;entryDx=0;entryDy=0;" parent="1" target="_V3Y3eylf52kLlvXlaU1-74" edge="1">
          <mxGeometry width="50" height="50" relative="1" as="geometry">
            <mxPoint x="380" y="460" as="sourcePoint" />
            <mxPoint x="460" y="460" as="targetPoint" />
            <Array as="points">
              <mxPoint x="420" y="460" />
              <mxPoint x="420" y="220" />
              <mxPoint x="470" y="220" />
            </Array>
          </mxGeometry>
        </mxCell>
        <mxCell id="_V3Y3eylf52kLlvXlaU1-73" value="&lt;font style=&quot;font-size: 14px&quot;&gt;Imm&lt;/font&gt;" style="edgeLabel;html=1;align=center;verticalAlign=middle;resizable=0;points=[];fontSize=16;" parent="_V3Y3eylf52kLlvXlaU1-69" vertex="1" connectable="0">
          <mxGeometry x="-0.575" relative="1" as="geometry">
            <mxPoint x="-20" y="37" as="offset" />
          </mxGeometry>
        </mxCell>
        <mxCell id="_V3Y3eylf52kLlvXlaU1-74" value="ImmExt" style="rounded=0;whiteSpace=wrap;html=1;fontSize=16;rotation=0;" parent="1" vertex="1">
          <mxGeometry x="440" y="190" width="60" height="60" as="geometry" />
        </mxCell>
        <mxCell id="_V3Y3eylf52kLlvXlaU1-75" value="" style="endArrow=classic;html=1;shadow=0;fontSize=16;entryX=0.5;entryY=0;entryDx=0;entryDy=0;" parent="1" target="_V3Y3eylf52kLlvXlaU1-74" edge="1">
          <mxGeometry width="50" height="50" relative="1" as="geometry">
            <mxPoint x="470" y="160" as="sourcePoint" />
            <mxPoint x="453" y="129" as="targetPoint" />
          </mxGeometry>
        </mxCell>
        <mxCell id="_V3Y3eylf52kLlvXlaU1-76" value="extOp" style="text;html=1;strokeColor=none;fillColor=none;align=center;verticalAlign=middle;whiteSpace=wrap;rounded=0;fontSize=16;" parent="1" vertex="1">
          <mxGeometry x="450" y="140" width="40" height="20" as="geometry" />
        </mxCell>
        <mxCell id="_V3Y3eylf52kLlvXlaU1-77" value="" style="endArrow=classic;html=1;shadow=0;fontSize=16;" parent="1" edge="1">
          <mxGeometry width="50" height="50" relative="1" as="geometry">
            <mxPoint x="500" y="220" as="sourcePoint" />
            <mxPoint x="620" y="270" as="targetPoint" />
            <Array as="points">
              <mxPoint x="540" y="220" />
              <mxPoint x="540" y="270" />
            </Array>
          </mxGeometry>
        </mxCell>
        <mxCell id="_V3Y3eylf52kLlvXlaU1-82" value="&lt;div&gt;M&lt;/div&gt;&lt;div&gt;U&lt;/div&gt;&lt;div&gt;X&lt;/div&gt;" style="strokeWidth=2;html=1;shape=mxgraph.flowchart.terminator;whiteSpace=wrap;fontSize=16;direction=south;" parent="1" vertex="1">
          <mxGeometry x="570" y="560" width="50" height="100" as="geometry" />
        </mxCell>
        <mxCell id="_V3Y3eylf52kLlvXlaU1-84" value="" style="endArrow=classic;html=1;shadow=0;fontSize=16;startArrow=oval;startFill=1;entryX=0.5;entryY=1;entryDx=0;entryDy=0;entryPerimeter=0;" parent="1" target="_V3Y3eylf52kLlvXlaU1-82" edge="1">
          <mxGeometry width="50" height="50" relative="1" as="geometry">
            <mxPoint x="460" y="423" as="sourcePoint" />
            <mxPoint x="580" y="693" as="targetPoint" />
            <Array as="points">
              <mxPoint x="460" y="610" />
            </Array>
          </mxGeometry>
        </mxCell>
        <mxCell id="_V3Y3eylf52kLlvXlaU1-85" value="" style="endArrow=classic;html=1;shadow=0;fontSize=16;" parent="1" edge="1">
          <mxGeometry width="50" height="50" relative="1" as="geometry">
            <mxPoint x="510" y="585" as="sourcePoint" />
            <mxPoint x="570" y="585" as="targetPoint" />
          </mxGeometry>
        </mxCell>
        <mxCell id="_V3Y3eylf52kLlvXlaU1-86" value="31" style="edgeLabel;html=1;align=center;verticalAlign=middle;resizable=0;points=[];fontSize=16;" parent="_V3Y3eylf52kLlvXlaU1-85" vertex="1" connectable="0">
          <mxGeometry x="-0.5667" y="3" relative="1" as="geometry">
            <mxPoint as="offset" />
          </mxGeometry>
        </mxCell>
        <mxCell id="_V3Y3eylf52kLlvXlaU1-87" value="" style="endArrow=classic;html=1;shadow=0;fontSize=16;exitX=0.5;exitY=0;exitDx=0;exitDy=0;exitPerimeter=0;" parent="1" source="_V3Y3eylf52kLlvXlaU1-82" edge="1">
          <mxGeometry width="50" height="50" relative="1" as="geometry">
            <mxPoint x="630" y="610" as="sourcePoint" />
            <mxPoint x="930" y="610" as="targetPoint" />
            <Array as="points" />
          </mxGeometry>
        </mxCell>
        <mxCell id="_V3Y3eylf52kLlvXlaU1-90" value="&lt;div&gt;write_dst&lt;/div&gt;" style="edgeLabel;html=1;align=center;verticalAlign=middle;resizable=0;points=[];fontSize=16;" parent="_V3Y3eylf52kLlvXlaU1-87" vertex="1" connectable="0">
          <mxGeometry x="-0.2308" y="-2" relative="1" as="geometry">
            <mxPoint x="51.18" y="8" as="offset" />
          </mxGeometry>
        </mxCell>
        <mxCell id="_V3Y3eylf52kLlvXlaU1-91" value="" style="endArrow=classic;html=1;shadow=0;fontSize=16;entryX=0.431;entryY=1.094;entryDx=0;entryDy=0;entryPerimeter=0;" parent="1" target="_V3Y3eylf52kLlvXlaU1-135" edge="1">
          <mxGeometry width="50" height="50" relative="1" as="geometry">
            <mxPoint x="660" y="410" as="sourcePoint" />
            <mxPoint x="940" y="409" as="targetPoint" />
          </mxGeometry>
        </mxCell>
        <mxCell id="_V3Y3eylf52kLlvXlaU1-92" value="" style="endArrow=classic;html=1;shadow=0;fontSize=16;exitX=0.991;exitY=0.409;exitDx=0;exitDy=0;exitPerimeter=0;" parent="1" source="_V3Y3eylf52kLlvXlaU1-58" edge="1">
          <mxGeometry width="50" height="50" relative="1" as="geometry">
            <mxPoint x="660" y="423" as="sourcePoint" />
            <mxPoint x="930" y="425" as="targetPoint" />
            <Array as="points">
              <mxPoint x="750" y="425" />
            </Array>
          </mxGeometry>
        </mxCell>
        <mxCell id="_V3Y3eylf52kLlvXlaU1-93" value="" style="endArrow=classic;html=1;shadow=0;fontSize=16;entryX=0;entryY=0.75;entryDx=0;entryDy=0;" parent="1" target="_V3Y3eylf52kLlvXlaU1-96" edge="1">
          <mxGeometry width="50" height="50" relative="1" as="geometry">
            <mxPoint x="380" y="484" as="sourcePoint" />
            <mxPoint x="610" y="308" as="targetPoint" />
            <Array as="points">
              <mxPoint x="430" y="484" />
              <mxPoint x="430" y="308" />
            </Array>
          </mxGeometry>
        </mxCell>
        <mxCell id="_V3Y3eylf52kLlvXlaU1-94" value="tar" style="edgeLabel;html=1;align=center;verticalAlign=middle;resizable=0;points=[];fontSize=16;" parent="_V3Y3eylf52kLlvXlaU1-93" vertex="1" connectable="0">
          <mxGeometry x="-0.4" relative="1" as="geometry">
            <mxPoint x="-30" y="74" as="offset" />
          </mxGeometry>
        </mxCell>
        <mxCell id="_V3Y3eylf52kLlvXlaU1-95" value="" style="endArrow=classic;html=1;shadow=0;fontSize=16;" parent="1" edge="1">
          <mxGeometry width="50" height="50" relative="1" as="geometry">
            <mxPoint x="280" y="290" as="sourcePoint" />
            <mxPoint x="620" y="290" as="targetPoint" />
          </mxGeometry>
        </mxCell>
        <mxCell id="_V3Y3eylf52kLlvXlaU1-96" value="&lt;font style=&quot;font-size: 14px&quot;&gt;branchPC&lt;/font&gt;" style="rounded=0;whiteSpace=wrap;html=1;fontSize=16;" parent="1" vertex="1">
          <mxGeometry x="620" y="255" width="70" height="70" as="geometry" />
        </mxCell>
        <mxCell id="_V3Y3eylf52kLlvXlaU1-97" value="" style="endArrow=classic;html=1;shadow=0;fontSize=16;" parent="1" edge="1">
          <mxGeometry width="50" height="50" relative="1" as="geometry">
            <mxPoint x="593" y="520" as="sourcePoint" />
            <mxPoint x="593" y="560" as="targetPoint" />
          </mxGeometry>
        </mxCell>
        <mxCell id="_V3Y3eylf52kLlvXlaU1-98" value="&lt;div&gt;wdstOp&lt;/div&gt;" style="text;html=1;align=center;verticalAlign=middle;resizable=0;points=[];autosize=1;fontSize=16;" parent="1" vertex="1">
          <mxGeometry x="560" y="500" width="70" height="20" as="geometry" />
        </mxCell>
        <mxCell id="_V3Y3eylf52kLlvXlaU1-99" value="" style="endArrow=classic;html=1;shadow=0;fontSize=16;" parent="1" edge="1">
          <mxGeometry width="50" height="50" relative="1" as="geometry">
            <mxPoint x="655" y="210" as="sourcePoint" />
            <mxPoint x="654.5" y="255" as="targetPoint" />
          </mxGeometry>
        </mxCell>
        <mxCell id="_V3Y3eylf52kLlvXlaU1-101" value="&lt;font style=&quot;font-size: 14px&quot;&gt;branchOp&lt;/font&gt;" style="edgeLabel;html=1;align=center;verticalAlign=middle;resizable=0;points=[];fontSize=16;" parent="_V3Y3eylf52kLlvXlaU1-99" vertex="1" connectable="0">
          <mxGeometry x="-0.5107" y="-1" relative="1" as="geometry">
            <mxPoint as="offset" />
          </mxGeometry>
        </mxCell>
        <mxCell id="_V3Y3eylf52kLlvXlaU1-104" value="" style="endArrow=classic;html=1;shadow=0;fontSize=16;exitX=1;exitY=0.5;exitDx=0;exitDy=0;" parent="1" source="_V3Y3eylf52kLlvXlaU1-96" edge="1">
          <mxGeometry width="50" height="50" relative="1" as="geometry">
            <mxPoint x="770" y="289.5" as="sourcePoint" />
            <mxPoint x="830" y="289.5" as="targetPoint" />
          </mxGeometry>
        </mxCell>
        <mxCell id="_V3Y3eylf52kLlvXlaU1-106" value="isBranch" style="rounded=0;whiteSpace=wrap;html=1;fontSize=16;" parent="1" vertex="1">
          <mxGeometry x="750" y="140" width="70" height="60" as="geometry" />
        </mxCell>
        <mxCell id="_V3Y3eylf52kLlvXlaU1-107" value="" style="endArrow=classic;html=1;shadow=0;fontSize=16;entryX=0;entryY=0.25;entryDx=0;entryDy=0;" parent="1" target="_V3Y3eylf52kLlvXlaU1-106" edge="1">
          <mxGeometry width="50" height="50" relative="1" as="geometry">
            <mxPoint x="710" y="410" as="sourcePoint" />
            <mxPoint x="760" y="360" as="targetPoint" />
            <Array as="points">
              <mxPoint x="710" y="155" />
            </Array>
          </mxGeometry>
        </mxCell>
        <mxCell id="_V3Y3eylf52kLlvXlaU1-108" value="" style="endArrow=classic;html=1;shadow=0;fontSize=16;entryX=0;entryY=0.75;entryDx=0;entryDy=0;" parent="1" target="_V3Y3eylf52kLlvXlaU1-106" edge="1">
          <mxGeometry width="50" height="50" relative="1" as="geometry">
            <mxPoint x="720" y="425" as="sourcePoint" />
            <mxPoint x="770" y="375" as="targetPoint" />
            <Array as="points">
              <mxPoint x="720" y="185" />
            </Array>
          </mxGeometry>
        </mxCell>
        <mxCell id="_V3Y3eylf52kLlvXlaU1-109" value="" style="endArrow=classic;html=1;shadow=0;fontSize=16;entryX=0.25;entryY=0;entryDx=0;entryDy=0;startArrow=oval;startFill=1;" parent="1" target="_V3Y3eylf52kLlvXlaU1-106" edge="1">
          <mxGeometry width="50" height="50" relative="1" as="geometry">
            <mxPoint x="480" y="425" as="sourcePoint" />
            <mxPoint x="510" y="375" as="targetPoint" />
            <Array as="points">
              <mxPoint x="480" y="360" />
              <mxPoint x="560" y="360" />
              <mxPoint x="560" y="120" />
              <mxPoint x="768" y="120" />
            </Array>
          </mxGeometry>
        </mxCell>
        <mxCell id="_V3Y3eylf52kLlvXlaU1-110" value="" style="endArrow=classic;html=1;shadow=0;fontSize=16;" parent="1" edge="1">
          <mxGeometry width="50" height="50" relative="1" as="geometry">
            <mxPoint x="800" y="100" as="sourcePoint" />
            <mxPoint x="800" y="140" as="targetPoint" />
          </mxGeometry>
        </mxCell>
        <mxCell id="_V3Y3eylf52kLlvXlaU1-111" value="&lt;font style=&quot;font-size: 14px&quot;&gt;Opcode&lt;/font&gt;" style="edgeLabel;html=1;align=center;verticalAlign=middle;resizable=0;points=[];fontSize=16;" parent="_V3Y3eylf52kLlvXlaU1-110" vertex="1" connectable="0">
          <mxGeometry x="-0.5" y="2" relative="1" as="geometry">
            <mxPoint as="offset" />
          </mxGeometry>
        </mxCell>
        <mxCell id="_V3Y3eylf52kLlvXlaU1-112" value="&lt;div&gt;M&lt;/div&gt;&lt;div&gt;U&lt;/div&gt;&lt;div&gt;X&lt;br&gt;&lt;/div&gt;" style="strokeWidth=2;html=1;shape=mxgraph.flowchart.terminator;whiteSpace=wrap;fontSize=16;direction=south;" parent="1" vertex="1">
          <mxGeometry x="830" y="270" width="30" height="90" as="geometry" />
        </mxCell>
        <mxCell id="_V3Y3eylf52kLlvXlaU1-113" value="" style="endArrow=classic;html=1;shadow=0;fontSize=16;entryX=0;entryY=0.5;entryDx=0;entryDy=0;entryPerimeter=0;" parent="1" target="_V3Y3eylf52kLlvXlaU1-112" edge="1">
          <mxGeometry width="50" height="50" relative="1" as="geometry">
            <mxPoint x="820" y="175" as="sourcePoint" />
            <mxPoint x="870" y="125" as="targetPoint" />
            <Array as="points">
              <mxPoint x="845" y="175" />
            </Array>
          </mxGeometry>
        </mxCell>
        <mxCell id="_V3Y3eylf52kLlvXlaU1-115" value="" style="endArrow=classic;html=1;shadow=0;fontSize=16;startArrow=oval;startFill=1;entryX=0.426;entryY=1.055;entryDx=0;entryDy=0;entryPerimeter=0;" parent="1" target="_V3Y3eylf52kLlvXlaU1-112" edge="1">
          <mxGeometry width="50" height="50" relative="1" as="geometry">
            <mxPoint x="480" y="290" as="sourcePoint" />
            <mxPoint x="825" y="310" as="targetPoint" />
            <Array as="points">
              <mxPoint x="480" y="340" />
              <mxPoint x="740" y="340" />
              <mxPoint x="740" y="310" />
            </Array>
          </mxGeometry>
        </mxCell>
        <mxCell id="_V3Y3eylf52kLlvXlaU1-124" style="edgeStyle=orthogonalEdgeStyle;rounded=0;comic=0;orthogonalLoop=1;jettySize=auto;html=1;exitX=0.5;exitY=0;exitDx=0;exitDy=0;exitPerimeter=0;entryX=0.5;entryY=1;entryDx=0;entryDy=0;shadow=0;startArrow=oval;startFill=1;fontSize=16;" parent="1" source="_V3Y3eylf52kLlvXlaU1-122" target="_V3Y3eylf52kLlvXlaU1-1" edge="1">
          <mxGeometry relative="1" as="geometry" />
        </mxCell>
        <mxCell id="_V3Y3eylf52kLlvXlaU1-122" value="&lt;div&gt;M&lt;/div&gt;&lt;div&gt;U&lt;/div&gt;&lt;div&gt;X&lt;/div&gt;" style="strokeWidth=2;html=1;shape=mxgraph.flowchart.terminator;whiteSpace=wrap;fontSize=16;direction=south;" parent="1" vertex="1">
          <mxGeometry x="10" y="403.5" width="40" height="91" as="geometry" />
        </mxCell>
        <mxCell id="_V3Y3eylf52kLlvXlaU1-125" value="" style="endArrow=classic;html=1;shadow=0;fontSize=16;entryX=0.291;entryY=1;entryDx=0;entryDy=0;entryPerimeter=0;" parent="1" target="_V3Y3eylf52kLlvXlaU1-122" edge="1">
          <mxGeometry width="50" height="50" relative="1" as="geometry">
            <mxPoint x="270" y="290" as="sourcePoint" />
            <mxPoint x="40" y="384" as="targetPoint" />
            <Array as="points">
              <mxPoint x="270" y="210" />
              <mxPoint x="-40" y="210" />
              <mxPoint x="-40" y="430" />
            </Array>
          </mxGeometry>
        </mxCell>
        <mxCell id="_V3Y3eylf52kLlvXlaU1-126" value="&lt;br&gt;&lt;div&gt;&lt;span style=&quot;font-size: 10.56pt ; font-family: &amp;#34;calibri&amp;#34; ; color: rgb(0 , 0 , 10)&quot;&gt;0xBFC0.0380&lt;br/&gt;&lt;/span&gt;&lt;/div&gt;" style="text;html=1;strokeColor=none;fillColor=none;align=center;verticalAlign=middle;whiteSpace=wrap;rounded=0;fontSize=16;" parent="1" vertex="1">
          <mxGeometry x="-80" y="462.81" width="80" height="20" as="geometry" />
        </mxCell>
        <mxCell id="_V3Y3eylf52kLlvXlaU1-127" value="" style="endArrow=classic;html=1;shadow=0;fontSize=16;" parent="1" edge="1">
          <mxGeometry width="50" height="50" relative="1" as="geometry">
            <mxPoint x="-40" y="470" as="sourcePoint" />
            <mxPoint x="10" y="470" as="targetPoint" />
          </mxGeometry>
        </mxCell>
        <mxCell id="_V3Y3eylf52kLlvXlaU1-129" value="&lt;font style=&quot;font-size: 16px&quot;&gt;Control&lt;/font&gt;" style="rounded=1;whiteSpace=wrap;html=1;" parent="1" vertex="1">
          <mxGeometry x="350" y="40" width="120" height="60" as="geometry" />
        </mxCell>
        <mxCell id="_V3Y3eylf52kLlvXlaU1-130" value="" style="endArrow=classic;html=1;shadow=0;fontSize=16;entryX=0;entryY=0.75;entryDx=0;entryDy=0;" parent="1" target="_V3Y3eylf52kLlvXlaU1-129" edge="1">
          <mxGeometry width="50" height="50" relative="1" as="geometry">
            <mxPoint x="100" y="414" as="sourcePoint" />
            <mxPoint x="100" y="260" as="targetPoint" />
            <Array as="points">
              <mxPoint x="100" y="85" />
            </Array>
          </mxGeometry>
        </mxCell>
        <mxCell id="_V3Y3eylf52kLlvXlaU1-131" value="" style="endArrow=classic;html=1;shadow=0;fontSize=16;entryX=0.5;entryY=1;entryDx=0;entryDy=0;entryPerimeter=0;startArrow=oval;startFill=1;" parent="1" target="_V3Y3eylf52kLlvXlaU1-122" edge="1">
          <mxGeometry width="50" height="50" relative="1" as="geometry">
            <mxPoint x="510" y="70" as="sourcePoint" />
            <mxPoint x="560" y="20" as="targetPoint" />
            <Array as="points">
              <mxPoint x="510" y="20" />
              <mxPoint x="-70" y="20" />
              <mxPoint x="-70" y="449" />
            </Array>
          </mxGeometry>
        </mxCell>
        <mxCell id="_V3Y3eylf52kLlvXlaU1-132" value="" style="endArrow=classic;html=1;shadow=0;fontSize=16;exitX=0;exitY=0.25;exitDx=0;exitDy=0;" parent="1" source="_V3Y3eylf52kLlvXlaU1-129" edge="1">
          <mxGeometry width="50" height="50" relative="1" as="geometry">
            <mxPoint x="-20" y="449" as="sourcePoint" />
            <mxPoint x="30" y="399" as="targetPoint" />
            <Array as="points">
              <mxPoint x="30" y="55" />
            </Array>
          </mxGeometry>
        </mxCell>
        <mxCell id="_V3Y3eylf52kLlvXlaU1-135" value="" style="rounded=0;whiteSpace=wrap;html=1;fontSize=16;rotation=90;" parent="1" vertex="1">
          <mxGeometry x="662.18" y="432.81" width="570.63" height="30" as="geometry" />
        </mxCell>
        <mxCell id="_V3Y3eylf52kLlvXlaU1-138" value="" style="endArrow=classic;html=1;shadow=0;fontSize=16;" parent="1" edge="1">
          <mxGeometry width="50" height="50" relative="1" as="geometry">
            <mxPoint x="870" y="445" as="sourcePoint" />
            <mxPoint x="930" y="444.5" as="targetPoint" />
          </mxGeometry>
        </mxCell>
        <mxCell id="_V3Y3eylf52kLlvXlaU1-139" value="ExtImm" style="edgeLabel;html=1;align=center;verticalAlign=middle;resizable=0;points=[];fontSize=16;" parent="_V3Y3eylf52kLlvXlaU1-138" vertex="1" connectable="0">
          <mxGeometry x="-0.4337" y="-1" relative="1" as="geometry">
            <mxPoint y="14.14" as="offset" />
          </mxGeometry>
        </mxCell>
        <mxCell id="_V3Y3eylf52kLlvXlaU1-140" value="CP0 Reg" style="rounded=0;whiteSpace=wrap;html=1;fontSize=16;" parent="1" vertex="1">
          <mxGeometry x="560" y="680" width="65" height="40" as="geometry" />
        </mxCell>
        <mxCell id="_V3Y3eylf52kLlvXlaU1-141" value="EPC" style="rounded=0;whiteSpace=wrap;html=1;fontSize=16;" parent="1" vertex="1">
          <mxGeometry x="560" y="720" width="65" height="36" as="geometry" />
        </mxCell>
        <mxCell id="_V3Y3eylf52kLlvXlaU1-143" value="" style="endArrow=classic;html=1;shadow=0;fontSize=16;" parent="1" edge="1">
          <mxGeometry width="50" height="50" relative="1" as="geometry">
            <mxPoint x="870" y="480" as="sourcePoint" />
            <mxPoint x="930" y="480" as="targetPoint" />
          </mxGeometry>
        </mxCell>
        <mxCell id="_V3Y3eylf52kLlvXlaU1-144" value="sa" style="edgeLabel;html=1;align=center;verticalAlign=middle;resizable=0;points=[];fontSize=16;" parent="_V3Y3eylf52kLlvXlaU1-143" vertex="1" connectable="0">
          <mxGeometry x="-0.6667" y="-3" relative="1" as="geometry">
            <mxPoint y="7" as="offset" />
          </mxGeometry>
        </mxCell>
        <mxCell id="_V3Y3eylf52kLlvXlaU1-147" value="&lt;div&gt;M&lt;/div&gt;&lt;div&gt;U&lt;/div&gt;&lt;div&gt;X&lt;br&gt;&lt;/div&gt;" style="strokeWidth=2;html=1;shape=mxgraph.flowchart.terminator;whiteSpace=wrap;fontSize=16;direction=south;" parent="1" vertex="1">
          <mxGeometry x="1080" y="100" width="30" height="70" as="geometry" />
        </mxCell>
        <mxCell id="_V3Y3eylf52kLlvXlaU1-148" value="" style="endArrow=classic;html=1;shadow=0;fontSize=16;entryX=0.314;entryY=1;entryDx=0;entryDy=0;entryPerimeter=0;jumpStyle=sharp;rounded=0;" parent="1" target="_V3Y3eylf52kLlvXlaU1-147" edge="1">
          <mxGeometry width="50" height="50" relative="1" as="geometry">
            <mxPoint x="960" y="410" as="sourcePoint" />
            <mxPoint x="1010" y="360" as="targetPoint" />
            <Array as="points">
              <mxPoint x="980" y="410" />
              <mxPoint x="980" y="122" />
            </Array>
          </mxGeometry>
        </mxCell>
        <mxCell id="_V3Y3eylf52kLlvXlaU1-149" value="" style="endArrow=classic;html=1;shadow=0;fontSize=16;entryX=0.7;entryY=1.067;entryDx=0;entryDy=0;entryPerimeter=0;" parent="1" target="_V3Y3eylf52kLlvXlaU1-147" edge="1">
          <mxGeometry width="50" height="50" relative="1" as="geometry">
            <mxPoint x="960" y="480" as="sourcePoint" />
            <mxPoint x="1010" y="430" as="targetPoint" />
            <Array as="points">
              <mxPoint x="990" y="480" />
              <mxPoint x="990" y="149" />
            </Array>
          </mxGeometry>
        </mxCell>
        <mxCell id="_V3Y3eylf52kLlvXlaU1-150" value="" style="endArrow=classic;html=1;shadow=0;fontSize=16;" parent="1" edge="1">
          <mxGeometry width="50" height="50" relative="1" as="geometry">
            <mxPoint x="1110" y="134" as="sourcePoint" />
            <mxPoint x="1140" y="134" as="targetPoint" />
          </mxGeometry>
        </mxCell>
        <mxCell id="_V3Y3eylf52kLlvXlaU1-159" value="" style="group" parent="1" vertex="1" connectable="0">
          <mxGeometry x="1140" y="120" width="30" height="90" as="geometry" />
        </mxCell>
        <mxCell id="_V3Y3eylf52kLlvXlaU1-158" value="" style="group" parent="_V3Y3eylf52kLlvXlaU1-159" vertex="1" connectable="0">
          <mxGeometry width="30" height="90" as="geometry" />
        </mxCell>
        <mxCell id="_V3Y3eylf52kLlvXlaU1-157" value="" style="group" parent="_V3Y3eylf52kLlvXlaU1-158" vertex="1" connectable="0">
          <mxGeometry width="30" height="90" as="geometry" />
        </mxCell>
        <mxCell id="_V3Y3eylf52kLlvXlaU1-151" value="" style="endArrow=none;html=1;shadow=0;" parent="_V3Y3eylf52kLlvXlaU1-157" edge="1">
          <mxGeometry width="50" height="50" relative="1" as="geometry">
            <mxPoint x="30" y="67.5" as="sourcePoint" />
            <mxPoint x="30" y="22.5" as="targetPoint" />
          </mxGeometry>
        </mxCell>
        <mxCell id="_V3Y3eylf52kLlvXlaU1-152" value="" style="endArrow=none;html=1;shadow=0;" parent="_V3Y3eylf52kLlvXlaU1-157" edge="1">
          <mxGeometry width="50" height="50" relative="1" as="geometry">
            <mxPoint y="90" as="sourcePoint" />
            <mxPoint x="30" y="67.5" as="targetPoint" />
          </mxGeometry>
        </mxCell>
        <mxCell id="_V3Y3eylf52kLlvXlaU1-153" value="" style="endArrow=none;html=1;shadow=0;" parent="_V3Y3eylf52kLlvXlaU1-157" edge="1">
          <mxGeometry width="50" height="50" relative="1" as="geometry">
            <mxPoint as="sourcePoint" />
            <mxPoint x="30" y="22.5" as="targetPoint" />
          </mxGeometry>
        </mxCell>
        <mxCell id="_V3Y3eylf52kLlvXlaU1-154" value="" style="endArrow=none;html=1;shadow=0;" parent="_V3Y3eylf52kLlvXlaU1-157" edge="1">
          <mxGeometry width="50" height="50" relative="1" as="geometry">
            <mxPoint y="39.375" as="sourcePoint" />
            <mxPoint as="targetPoint" />
          </mxGeometry>
        </mxCell>
        <mxCell id="_V3Y3eylf52kLlvXlaU1-155" value="" style="endArrow=none;html=1;shadow=0;" parent="_V3Y3eylf52kLlvXlaU1-157" edge="1">
          <mxGeometry width="50" height="50" relative="1" as="geometry">
            <mxPoint y="50.625" as="sourcePoint" />
            <mxPoint y="90" as="targetPoint" />
          </mxGeometry>
        </mxCell>
        <mxCell id="_V3Y3eylf52kLlvXlaU1-156" value="" style="endArrow=none;html=1;shadow=0;rounded=0;" parent="_V3Y3eylf52kLlvXlaU1-157" edge="1">
          <mxGeometry width="50" height="50" relative="1" as="geometry">
            <mxPoint y="50.625" as="sourcePoint" />
            <mxPoint y="39.375" as="targetPoint" />
            <Array as="points">
              <mxPoint x="7.5" y="45" />
            </Array>
          </mxGeometry>
        </mxCell>
        <mxCell id="_V3Y3eylf52kLlvXlaU1-161" value="" style="endArrow=classic;html=1;shadow=0;fontSize=16;" parent="_V3Y3eylf52kLlvXlaU1-157" edge="1">
          <mxGeometry width="50" height="50" relative="1" as="geometry">
            <mxPoint x="20" y="-40" as="sourcePoint" />
            <mxPoint x="20" y="10" as="targetPoint" />
          </mxGeometry>
        </mxCell>
        <mxCell id="_V3Y3eylf52kLlvXlaU1-162" value="aluOp(shift)" style="edgeLabel;html=1;align=center;verticalAlign=middle;resizable=0;points=[];fontSize=16;" parent="_V3Y3eylf52kLlvXlaU1-161" vertex="1" connectable="0">
          <mxGeometry x="-0.44" y="4" relative="1" as="geometry">
            <mxPoint x="-4" y="-24" as="offset" />
          </mxGeometry>
        </mxCell>
        <mxCell id="_V3Y3eylf52kLlvXlaU1-160" value="" style="endArrow=classic;html=1;shadow=0;fontSize=16;rounded=0;" parent="1" edge="1">
          <mxGeometry width="50" height="50" relative="1" as="geometry">
            <mxPoint x="960" y="426" as="sourcePoint" />
            <mxPoint x="1140" y="190" as="targetPoint" />
            <Array as="points">
              <mxPoint x="1010" y="426" />
              <mxPoint x="1010" y="190" />
            </Array>
          </mxGeometry>
        </mxCell>
        <mxCell id="_V3Y3eylf52kLlvXlaU1-163" value="" style="endArrow=classic;html=1;shadow=0;fontSize=16;" parent="1" edge="1">
          <mxGeometry width="50" height="50" relative="1" as="geometry">
            <mxPoint x="1170" y="166" as="sourcePoint" />
            <mxPoint x="1557" y="293" as="targetPoint" />
            <Array as="points">
              <mxPoint x="1520" y="166" />
              <mxPoint x="1520" y="293" />
            </Array>
          </mxGeometry>
        </mxCell>
        <mxCell id="_V3Y3eylf52kLlvXlaU1-164" value="" style="endArrow=classic;html=1;shadow=0;fontSize=16;startArrow=oval;startFill=1;" parent="1" edge="1">
          <mxGeometry width="50" height="50" relative="1" as="geometry">
            <mxPoint x="980" y="410" as="sourcePoint" />
            <mxPoint x="1130" y="300" as="targetPoint" />
            <Array as="points">
              <mxPoint x="1040" y="410" />
              <mxPoint x="1040" y="300" />
            </Array>
          </mxGeometry>
        </mxCell>
        <mxCell id="_V3Y3eylf52kLlvXlaU1-178" value="" style="group" parent="1" vertex="1" connectable="0">
          <mxGeometry x="1130" y="270" width="58" height="120" as="geometry" />
        </mxCell>
        <mxCell id="_V3Y3eylf52kLlvXlaU1-177" value="" style="group" parent="_V3Y3eylf52kLlvXlaU1-178" vertex="1" connectable="0">
          <mxGeometry width="58" height="120" as="geometry" />
        </mxCell>
        <mxCell id="_V3Y3eylf52kLlvXlaU1-171" value="" style="endArrow=none;html=1;shadow=0;" parent="_V3Y3eylf52kLlvXlaU1-177" edge="1">
          <mxGeometry width="50" height="50" relative="1" as="geometry">
            <mxPoint x="39" y="90" as="sourcePoint" />
            <mxPoint x="39" y="30" as="targetPoint" />
          </mxGeometry>
        </mxCell>
        <mxCell id="_V3Y3eylf52kLlvXlaU1-172" value="" style="endArrow=none;html=1;shadow=0;" parent="_V3Y3eylf52kLlvXlaU1-177" edge="1">
          <mxGeometry width="50" height="50" relative="1" as="geometry">
            <mxPoint y="120" as="sourcePoint" />
            <mxPoint x="39" y="90" as="targetPoint" />
          </mxGeometry>
        </mxCell>
        <mxCell id="_V3Y3eylf52kLlvXlaU1-173" value="" style="endArrow=none;html=1;shadow=0;" parent="_V3Y3eylf52kLlvXlaU1-177" edge="1">
          <mxGeometry width="50" height="50" relative="1" as="geometry">
            <mxPoint as="sourcePoint" />
            <mxPoint x="39" y="30" as="targetPoint" />
          </mxGeometry>
        </mxCell>
        <mxCell id="_V3Y3eylf52kLlvXlaU1-174" value="" style="endArrow=none;html=1;shadow=0;" parent="_V3Y3eylf52kLlvXlaU1-177" edge="1">
          <mxGeometry width="50" height="50" relative="1" as="geometry">
            <mxPoint y="52.5" as="sourcePoint" />
            <mxPoint as="targetPoint" />
          </mxGeometry>
        </mxCell>
        <mxCell id="_V3Y3eylf52kLlvXlaU1-175" value="" style="endArrow=none;html=1;shadow=0;" parent="_V3Y3eylf52kLlvXlaU1-177" edge="1">
          <mxGeometry width="50" height="50" relative="1" as="geometry">
            <mxPoint y="67.5" as="sourcePoint" />
            <mxPoint y="120" as="targetPoint" />
          </mxGeometry>
        </mxCell>
        <mxCell id="_V3Y3eylf52kLlvXlaU1-176" value="" style="endArrow=none;html=1;shadow=0;rounded=0;" parent="_V3Y3eylf52kLlvXlaU1-177" edge="1">
          <mxGeometry width="50" height="50" relative="1" as="geometry">
            <mxPoint y="67.5" as="sourcePoint" />
            <mxPoint y="52.5" as="targetPoint" />
            <Array as="points">
              <mxPoint x="9.75" y="60" />
            </Array>
          </mxGeometry>
        </mxCell>
        <mxCell id="_V3Y3eylf52kLlvXlaU1-179" value="" style="endArrow=classic;html=1;shadow=0;fontSize=16;" parent="_V3Y3eylf52kLlvXlaU1-177" edge="1">
          <mxGeometry width="50" height="50" relative="1" as="geometry">
            <mxPoint x="20" y="-40" as="sourcePoint" />
            <mxPoint x="20" y="10" as="targetPoint" />
          </mxGeometry>
        </mxCell>
        <mxCell id="_V3Y3eylf52kLlvXlaU1-180" value="aluOp" style="edgeLabel;html=1;align=center;verticalAlign=middle;resizable=0;points=[];fontSize=16;" parent="_V3Y3eylf52kLlvXlaU1-179" vertex="1" connectable="0">
          <mxGeometry x="-0.48" y="-1" relative="1" as="geometry">
            <mxPoint y="-5" as="offset" />
          </mxGeometry>
        </mxCell>
        <mxCell id="_V3Y3eylf52kLlvXlaU1-187" value="&lt;div&gt;A&lt;/div&gt;&lt;div&gt;L&lt;/div&gt;&lt;div&gt;U&lt;br&gt;&lt;/div&gt;" style="text;html=1;align=center;verticalAlign=middle;resizable=0;points=[];autosize=1;fontSize=16;" parent="_V3Y3eylf52kLlvXlaU1-177" vertex="1">
          <mxGeometry x="5" y="30" width="30" height="60" as="geometry" />
        </mxCell>
        <mxCell id="_V3Y3eylf52kLlvXlaU1-204" value="" style="endArrow=classic;html=1;shadow=0;fontSize=16;entryX=-0.017;entryY=0.335;entryDx=0;entryDy=0;entryPerimeter=0;" parent="_V3Y3eylf52kLlvXlaU1-177" target="_V3Y3eylf52kLlvXlaU1-205" edge="1">
          <mxGeometry width="50" height="50" relative="1" as="geometry">
            <mxPoint x="39" y="62" as="sourcePoint" />
            <mxPoint x="89" y="62" as="targetPoint" />
          </mxGeometry>
        </mxCell>
        <mxCell id="_V3Y3eylf52kLlvXlaU1-181" value="" style="endArrow=classic;html=1;shadow=0;fontSize=16;startArrow=oval;startFill=1;" parent="1" edge="1">
          <mxGeometry width="50" height="50" relative="1" as="geometry">
            <mxPoint x="1010" y="425" as="sourcePoint" />
            <mxPoint x="1060" y="425" as="targetPoint" />
          </mxGeometry>
        </mxCell>
        <mxCell id="_V3Y3eylf52kLlvXlaU1-182" value="&lt;div&gt;M&lt;/div&gt;&lt;div&gt;U&lt;/div&gt;&lt;div&gt;X&lt;br&gt;&lt;/div&gt;" style="strokeWidth=2;html=1;shape=mxgraph.flowchart.terminator;whiteSpace=wrap;fontSize=16;direction=south;" parent="1" vertex="1">
          <mxGeometry x="1060" y="403.5" width="30" height="70" as="geometry" />
        </mxCell>
        <mxCell id="_V3Y3eylf52kLlvXlaU1-185" value="" style="endArrow=classic;html=1;shadow=0;fontSize=16;" parent="1" edge="1">
          <mxGeometry width="50" height="50" relative="1" as="geometry">
            <mxPoint x="960" y="449" as="sourcePoint" />
            <mxPoint x="1059" y="450" as="targetPoint" />
          </mxGeometry>
        </mxCell>
        <mxCell id="_V3Y3eylf52kLlvXlaU1-186" value="" style="endArrow=classic;html=1;shadow=0;fontSize=16;exitX=0.5;exitY=0;exitDx=0;exitDy=0;exitPerimeter=0;rounded=0;" parent="1" source="_V3Y3eylf52kLlvXlaU1-182" edge="1">
          <mxGeometry width="50" height="50" relative="1" as="geometry">
            <mxPoint x="1080" y="414" as="sourcePoint" />
            <mxPoint x="1130" y="364" as="targetPoint" />
            <Array as="points">
              <mxPoint x="1110" y="439" />
              <mxPoint x="1110" y="364" />
            </Array>
          </mxGeometry>
        </mxCell>
        <mxCell id="_V3Y3eylf52kLlvXlaU1-188" value="MUL/DIV" style="rounded=0;whiteSpace=wrap;html=1;fontSize=16;" parent="1" vertex="1">
          <mxGeometry x="1095" y="490" width="95" height="60" as="geometry" />
        </mxCell>
        <mxCell id="_V3Y3eylf52kLlvXlaU1-189" value="" style="endArrow=classic;html=1;shadow=0;fontSize=16;entryX=0;entryY=0.75;entryDx=0;entryDy=0;rounded=0;" parent="1" target="_V3Y3eylf52kLlvXlaU1-188" edge="1">
          <mxGeometry width="50" height="50" relative="1" as="geometry">
            <mxPoint x="980" y="410" as="sourcePoint" />
            <mxPoint x="1095" y="510" as="targetPoint" />
            <Array as="points">
              <mxPoint x="980" y="535" />
            </Array>
          </mxGeometry>
        </mxCell>
        <mxCell id="_V3Y3eylf52kLlvXlaU1-190" value="" style="endArrow=classic;html=1;shadow=0;fontSize=16;" parent="1" edge="1">
          <mxGeometry width="50" height="50" relative="1" as="geometry">
            <mxPoint x="1010" y="420" as="sourcePoint" />
            <mxPoint x="1095" y="510" as="targetPoint" />
            <Array as="points">
              <mxPoint x="1010" y="510" />
            </Array>
          </mxGeometry>
        </mxCell>
        <mxCell id="_V3Y3eylf52kLlvXlaU1-194" value="" style="endArrow=classic;html=1;shadow=0;fontSize=16;entryX=0.5;entryY=0;entryDx=0;entryDy=0;" parent="1" target="_V3Y3eylf52kLlvXlaU1-191" edge="1">
          <mxGeometry width="50" height="50" relative="1" as="geometry">
            <mxPoint x="1117" y="550" as="sourcePoint" />
            <mxPoint x="1130" y="580" as="targetPoint" />
          </mxGeometry>
        </mxCell>
        <mxCell id="_V3Y3eylf52kLlvXlaU1-195" value="" style="endArrow=classic;html=1;shadow=0;fontSize=16;entryX=0.5;entryY=0;entryDx=0;entryDy=0;" parent="1" target="_V3Y3eylf52kLlvXlaU1-192" edge="1">
          <mxGeometry width="50" height="50" relative="1" as="geometry">
            <mxPoint x="1164" y="550" as="sourcePoint" />
            <mxPoint x="1171.25" y="590" as="targetPoint" />
          </mxGeometry>
        </mxCell>
        <mxCell id="_V3Y3eylf52kLlvXlaU1-198" value="" style="group" parent="1" vertex="1" connectable="0">
          <mxGeometry x="1093" y="590" width="95" height="20" as="geometry" />
        </mxCell>
        <mxCell id="_V3Y3eylf52kLlvXlaU1-196" value="" style="group" parent="_V3Y3eylf52kLlvXlaU1-198" vertex="1" connectable="0">
          <mxGeometry width="95" height="20" as="geometry" />
        </mxCell>
        <mxCell id="_V3Y3eylf52kLlvXlaU1-193" value="" style="group" parent="_V3Y3eylf52kLlvXlaU1-196" vertex="1" connectable="0">
          <mxGeometry width="95" height="20" as="geometry" />
        </mxCell>
        <mxCell id="_V3Y3eylf52kLlvXlaU1-191" value="HI" style="rounded=0;whiteSpace=wrap;html=1;fontSize=16;" parent="_V3Y3eylf52kLlvXlaU1-193" vertex="1">
          <mxGeometry width="47.5" height="20" as="geometry" />
        </mxCell>
        <mxCell id="_V3Y3eylf52kLlvXlaU1-192" value="LO" style="rounded=0;whiteSpace=wrap;html=1;fontSize=16;" parent="_V3Y3eylf52kLlvXlaU1-193" vertex="1">
          <mxGeometry x="47.5" width="47.5" height="20" as="geometry" />
        </mxCell>
        <mxCell id="_V3Y3eylf52kLlvXlaU1-199" value="" style="endArrow=classic;html=1;shadow=0;fontSize=16;" parent="1" edge="1">
          <mxGeometry width="50" height="50" relative="1" as="geometry">
            <mxPoint x="1120" y="650" as="sourcePoint" />
            <mxPoint x="1120" y="610" as="targetPoint" />
          </mxGeometry>
        </mxCell>
        <mxCell id="_V3Y3eylf52kLlvXlaU1-200" value="" style="endArrow=classic;html=1;shadow=0;fontSize=16;" parent="1" edge="1">
          <mxGeometry width="50" height="50" relative="1" as="geometry">
            <mxPoint x="1171" y="650" as="sourcePoint" />
            <mxPoint x="1171.25" y="610" as="targetPoint" />
          </mxGeometry>
        </mxCell>
        <mxCell id="_V3Y3eylf52kLlvXlaU1-202" value="" style="endArrow=none;html=1;shadow=0;fontSize=16;" parent="1" edge="1">
          <mxGeometry width="50" height="50" relative="1" as="geometry">
            <mxPoint x="980" y="530" as="sourcePoint" />
            <mxPoint x="1171.25" y="650" as="targetPoint" />
            <Array as="points">
              <mxPoint x="980" y="650" />
            </Array>
          </mxGeometry>
        </mxCell>
        <mxCell id="_V3Y3eylf52kLlvXlaU1-203" value="" style="endArrow=classic;html=1;shadow=0;fontSize=16;entryX=0.664;entryY=0.957;entryDx=0;entryDy=0;entryPerimeter=0;" parent="1" target="_V3Y3eylf52kLlvXlaU1-221" edge="1">
          <mxGeometry width="50" height="50" relative="1" as="geometry">
            <mxPoint x="1188" y="600" as="sourcePoint" />
            <mxPoint x="1550" y="367" as="targetPoint" />
            <Array as="points">
              <mxPoint x="1460" y="600" />
              <mxPoint x="1460" y="370" />
              <mxPoint x="1510" y="370" />
            </Array>
          </mxGeometry>
        </mxCell>
        <mxCell id="_V3Y3eylf52kLlvXlaU1-205" value="MEM" style="rounded=0;whiteSpace=wrap;html=1;fontSize=16;" parent="1" vertex="1">
          <mxGeometry x="1280" y="293.5" width="120" height="110" as="geometry" />
        </mxCell>
        <mxCell id="_V3Y3eylf52kLlvXlaU1-207" value="&lt;font style=&quot;font-size: 13px&quot;&gt;addr&lt;/font&gt;" style="text;html=1;strokeColor=none;fillColor=none;align=center;verticalAlign=middle;whiteSpace=wrap;rounded=0;fontSize=16;" parent="1" vertex="1">
          <mxGeometry x="1280" y="320" width="40" height="20" as="geometry" />
        </mxCell>
        <mxCell id="_V3Y3eylf52kLlvXlaU1-208" value="" style="endArrow=classic;html=1;shadow=0;fontSize=16;" parent="1" edge="1">
          <mxGeometry width="50" height="50" relative="1" as="geometry">
            <mxPoint x="1340" y="260" as="sourcePoint" />
            <mxPoint x="1340" y="293.5" as="targetPoint" />
          </mxGeometry>
        </mxCell>
        <mxCell id="_V3Y3eylf52kLlvXlaU1-209" value="&lt;font style=&quot;font-size: 14px&quot;&gt;write_en&lt;/font&gt;" style="edgeLabel;html=1;align=center;verticalAlign=middle;resizable=0;points=[];fontSize=16;" parent="_V3Y3eylf52kLlvXlaU1-208" vertex="1" connectable="0">
          <mxGeometry x="-0.4826" y="3" relative="1" as="geometry">
            <mxPoint y="-13.33" as="offset" />
          </mxGeometry>
        </mxCell>
        <mxCell id="_V3Y3eylf52kLlvXlaU1-211" value="" style="endArrow=classic;html=1;shadow=0;fontSize=16;entryX=-0.017;entryY=0.918;entryDx=0;entryDy=0;entryPerimeter=0;startArrow=oval;startFill=1;" parent="1" target="_V3Y3eylf52kLlvXlaU1-205" edge="1">
          <mxGeometry width="50" height="50" relative="1" as="geometry">
            <mxPoint x="1010" y="394" as="sourcePoint" />
            <mxPoint x="1280" y="380" as="targetPoint" />
          </mxGeometry>
        </mxCell>
        <mxCell id="_V3Y3eylf52kLlvXlaU1-212" value="&lt;font style=&quot;font-size: 13px&quot;&gt;write_data&lt;/font&gt;" style="text;html=1;strokeColor=none;fillColor=none;align=center;verticalAlign=middle;whiteSpace=wrap;rounded=0;fontSize=16;" parent="1" vertex="1">
          <mxGeometry x="1290" y="380" width="40" height="20" as="geometry" />
        </mxCell>
        <mxCell id="_V3Y3eylf52kLlvXlaU1-213" value="" style="endArrow=classic;html=1;shadow=0;fontSize=16;" parent="1" edge="1">
          <mxGeometry width="50" height="50" relative="1" as="geometry">
            <mxPoint x="1400" y="321.25" as="sourcePoint" />
            <mxPoint x="1450" y="321" as="targetPoint" />
          </mxGeometry>
        </mxCell>
        <mxCell id="_V3Y3eylf52kLlvXlaU1-215" value="&lt;font style=&quot;font-size: 13px&quot;&gt;read_data&lt;/font&gt;" style="text;html=1;strokeColor=none;fillColor=none;align=center;verticalAlign=middle;whiteSpace=wrap;rounded=0;fontSize=16;" parent="1" vertex="1">
          <mxGeometry x="1350" y="305" width="40" height="20" as="geometry" />
        </mxCell>
        <mxCell id="_V3Y3eylf52kLlvXlaU1-216" value="ext" style="rounded=0;whiteSpace=wrap;html=1;fontSize=16;" parent="1" vertex="1">
          <mxGeometry x="1450" y="305" width="50" height="30" as="geometry" />
        </mxCell>
        <mxCell id="_V3Y3eylf52kLlvXlaU1-217" value="" style="endArrow=classic;html=1;shadow=0;fontSize=16;" parent="1" edge="1">
          <mxGeometry width="50" height="50" relative="1" as="geometry">
            <mxPoint x="1476" y="270" as="sourcePoint" />
            <mxPoint x="1476" y="305" as="targetPoint" />
          </mxGeometry>
        </mxCell>
        <mxCell id="_V3Y3eylf52kLlvXlaU1-218" value="&lt;font style=&quot;font-size: 14px&quot;&gt;extOp&lt;/font&gt;" style="edgeLabel;html=1;align=center;verticalAlign=middle;resizable=0;points=[];fontSize=16;" parent="_V3Y3eylf52kLlvXlaU1-217" vertex="1" connectable="0">
          <mxGeometry x="-0.5048" y="-1" relative="1" as="geometry">
            <mxPoint as="offset" />
          </mxGeometry>
        </mxCell>
        <mxCell id="_V3Y3eylf52kLlvXlaU1-219" value="" style="endArrow=classic;html=1;shadow=0;fontSize=16;" parent="1" edge="1">
          <mxGeometry width="50" height="50" relative="1" as="geometry">
            <mxPoint x="1500" y="321.25" as="sourcePoint" />
            <mxPoint x="1557" y="321" as="targetPoint" />
          </mxGeometry>
        </mxCell>
        <mxCell id="_V3Y3eylf52kLlvXlaU1-221" value="&lt;div&gt;M&lt;/div&gt;&lt;div&gt;U&lt;/div&gt;&lt;div&gt;X&lt;br&gt;&lt;/div&gt;" style="strokeWidth=2;html=1;shape=mxgraph.flowchart.terminator;whiteSpace=wrap;fontSize=16;direction=south;" parent="1" vertex="1">
          <mxGeometry x="1560" y="270" width="30" height="150" as="geometry" />
        </mxCell>
        <mxCell id="_V3Y3eylf52kLlvXlaU1-222" value="" style="endArrow=classic;html=1;shadow=0;fontSize=16;exitX=1;exitY=0.5;exitDx=0;exitDy=0;" parent="1" source="_V3Y3eylf52kLlvXlaU1-140" edge="1">
          <mxGeometry width="50" height="50" relative="1" as="geometry">
            <mxPoint x="760" y="806" as="sourcePoint" />
            <mxPoint x="930" y="700" as="targetPoint" />
          </mxGeometry>
        </mxCell>
        <mxCell id="_V3Y3eylf52kLlvXlaU1-223" value="" style="endArrow=classic;html=1;shadow=0;fontSize=16;" parent="1" edge="1">
          <mxGeometry width="50" height="50" relative="1" as="geometry">
            <mxPoint x="960" y="700" as="sourcePoint" />
            <mxPoint x="1560" y="393" as="targetPoint" />
            <Array as="points">
              <mxPoint x="1480" y="700" />
              <mxPoint x="1480" y="393" />
            </Array>
          </mxGeometry>
        </mxCell>
        <mxCell id="_V3Y3eylf52kLlvXlaU1-236" value="" style="endArrow=classic;html=1;shadow=0;fontSize=16;" parent="1" edge="1">
          <mxGeometry width="50" height="50" relative="1" as="geometry">
            <mxPoint x="1100" y="300" as="sourcePoint" />
            <mxPoint x="1250" y="470" as="targetPoint" />
            <Array as="points">
              <mxPoint x="1100" y="470" />
            </Array>
          </mxGeometry>
        </mxCell>
        <mxCell id="_V3Y3eylf52kLlvXlaU1-237" value="" style="group" parent="1" vertex="1" connectable="0">
          <mxGeometry x="1250" y="450" width="30" height="90" as="geometry" />
        </mxCell>
        <mxCell id="_V3Y3eylf52kLlvXlaU1-225" value="" style="group" parent="_V3Y3eylf52kLlvXlaU1-237" vertex="1" connectable="0">
          <mxGeometry width="30" height="90" as="geometry" />
        </mxCell>
        <mxCell id="_V3Y3eylf52kLlvXlaU1-226" value="" style="group" parent="_V3Y3eylf52kLlvXlaU1-225" vertex="1" connectable="0">
          <mxGeometry width="30" height="90" as="geometry" />
        </mxCell>
        <mxCell id="_V3Y3eylf52kLlvXlaU1-227" value="" style="group" parent="_V3Y3eylf52kLlvXlaU1-226" vertex="1" connectable="0">
          <mxGeometry width="30" height="90" as="geometry" />
        </mxCell>
        <mxCell id="_V3Y3eylf52kLlvXlaU1-228" value="" style="endArrow=none;html=1;shadow=0;" parent="_V3Y3eylf52kLlvXlaU1-227" edge="1">
          <mxGeometry width="50" height="50" relative="1" as="geometry">
            <mxPoint x="30" y="67.5" as="sourcePoint" />
            <mxPoint x="30" y="22.5" as="targetPoint" />
          </mxGeometry>
        </mxCell>
        <mxCell id="_V3Y3eylf52kLlvXlaU1-229" value="" style="endArrow=none;html=1;shadow=0;" parent="_V3Y3eylf52kLlvXlaU1-227" edge="1">
          <mxGeometry width="50" height="50" relative="1" as="geometry">
            <mxPoint y="90" as="sourcePoint" />
            <mxPoint x="30" y="67.5" as="targetPoint" />
          </mxGeometry>
        </mxCell>
        <mxCell id="_V3Y3eylf52kLlvXlaU1-230" value="" style="endArrow=none;html=1;shadow=0;" parent="_V3Y3eylf52kLlvXlaU1-227" edge="1">
          <mxGeometry width="50" height="50" relative="1" as="geometry">
            <mxPoint as="sourcePoint" />
            <mxPoint x="30" y="22.5" as="targetPoint" />
          </mxGeometry>
        </mxCell>
        <mxCell id="_V3Y3eylf52kLlvXlaU1-231" value="" style="endArrow=none;html=1;shadow=0;" parent="_V3Y3eylf52kLlvXlaU1-227" edge="1">
          <mxGeometry width="50" height="50" relative="1" as="geometry">
            <mxPoint y="39.375" as="sourcePoint" />
            <mxPoint as="targetPoint" />
          </mxGeometry>
        </mxCell>
        <mxCell id="_V3Y3eylf52kLlvXlaU1-232" value="" style="endArrow=none;html=1;shadow=0;" parent="_V3Y3eylf52kLlvXlaU1-227" edge="1">
          <mxGeometry width="50" height="50" relative="1" as="geometry">
            <mxPoint y="50.625" as="sourcePoint" />
            <mxPoint y="90" as="targetPoint" />
          </mxGeometry>
        </mxCell>
        <mxCell id="_V3Y3eylf52kLlvXlaU1-233" value="" style="endArrow=none;html=1;shadow=0;rounded=0;" parent="_V3Y3eylf52kLlvXlaU1-227" edge="1">
          <mxGeometry width="50" height="50" relative="1" as="geometry">
            <mxPoint y="50.625" as="sourcePoint" />
            <mxPoint y="39.375" as="targetPoint" />
            <Array as="points">
              <mxPoint x="7.5" y="45" />
            </Array>
          </mxGeometry>
        </mxCell>
        <mxCell id="_V3Y3eylf52kLlvXlaU1-234" value="" style="endArrow=classic;html=1;shadow=0;fontSize=16;" parent="_V3Y3eylf52kLlvXlaU1-227" edge="1">
          <mxGeometry width="50" height="50" relative="1" as="geometry">
            <mxPoint x="20" y="-40" as="sourcePoint" />
            <mxPoint x="20" y="10" as="targetPoint" />
          </mxGeometry>
        </mxCell>
        <mxCell id="_V3Y3eylf52kLlvXlaU1-235" value="aluOp(cmp)" style="edgeLabel;html=1;align=center;verticalAlign=middle;resizable=0;points=[];fontSize=16;" parent="_V3Y3eylf52kLlvXlaU1-234" vertex="1" connectable="0">
          <mxGeometry x="-0.44" y="4" relative="1" as="geometry">
            <mxPoint x="-4" y="-5.620000000000001" as="offset" />
          </mxGeometry>
        </mxCell>
        <mxCell id="_V3Y3eylf52kLlvXlaU1-238" value="" style="endArrow=classic;html=1;shadow=0;fontSize=16;startArrow=oval;startFill=1;" parent="1" edge="1">
          <mxGeometry width="50" height="50" relative="1" as="geometry">
            <mxPoint x="1110" y="440" as="sourcePoint" />
            <mxPoint x="1250" y="520" as="targetPoint" />
            <Array as="points">
              <mxPoint x="1200" y="440" />
              <mxPoint x="1200" y="520" />
            </Array>
          </mxGeometry>
        </mxCell>
        <mxCell id="_V3Y3eylf52kLlvXlaU1-241" value="" style="endArrow=classic;html=1;shadow=0;fontSize=16;" parent="1" edge="1">
          <mxGeometry width="50" height="50" relative="1" as="geometry">
            <mxPoint x="1280" y="490" as="sourcePoint" />
            <mxPoint x="1560" y="350" as="targetPoint" />
            <Array as="points">
              <mxPoint x="1420" y="490" />
              <mxPoint x="1420" y="350" />
            </Array>
          </mxGeometry>
        </mxCell>
        <mxCell id="_V3Y3eylf52kLlvXlaU1-242" value="" style="endArrow=classic;html=1;shadow=0;fontSize=16;entryX=0;entryY=0.75;entryDx=0;entryDy=0;" parent="1" target="_V3Y3eylf52kLlvXlaU1-58" edge="1">
          <mxGeometry width="50" height="50" relative="1" as="geometry">
            <mxPoint x="1590" y="345" as="sourcePoint" />
            <mxPoint x="480" y="500" as="targetPoint" />
            <Array as="points">
              <mxPoint x="1640" y="345" />
              <mxPoint x="1640" y="790" />
              <mxPoint x="490" y="790" />
              <mxPoint x="490" y="463" />
            </Array>
          </mxGeometry>
        </mxCell>
        <mxCell id="_V3Y3eylf52kLlvXlaU1-243" value="" style="endArrow=classic;html=1;shadow=0;fontSize=16;startArrow=oval;startFill=1;" parent="1" edge="1">
          <mxGeometry width="50" height="50" relative="1" as="geometry">
            <mxPoint x="490" y="700" as="sourcePoint" />
            <mxPoint x="560" y="700" as="targetPoint" />
          </mxGeometry>
        </mxCell>
        <mxCell id="_V3Y3eylf52kLlvXlaU1-244" value="" style="endArrow=classic;html=1;shadow=0;fontSize=16;" parent="1" edge="1">
          <mxGeometry width="50" height="50" relative="1" as="geometry">
            <mxPoint x="608" y="350" as="sourcePoint" />
            <mxPoint x="608" y="380" as="targetPoint" />
          </mxGeometry>
        </mxCell>
        <mxCell id="_V3Y3eylf52kLlvXlaU1-245" value="write_en" style="text;html=1;strokeColor=none;fillColor=none;align=center;verticalAlign=middle;whiteSpace=wrap;rounded=0;fontSize=16;" parent="1" vertex="1">
          <mxGeometry x="625" y="350" width="40" height="20" as="geometry" />
        </mxCell>
        <mxCell id="_V3Y3eylf52kLlvXlaU1-247" value="" style="endArrow=classic;html=1;shadow=0;fontSize=16;entryX=0.006;entryY=0.878;entryDx=0;entryDy=0;entryPerimeter=0;" parent="1" target="_V3Y3eylf52kLlvXlaU1-58" edge="1">
          <mxGeometry width="50" height="50" relative="1" as="geometry">
            <mxPoint x="960" y="610" as="sourcePoint" />
            <mxPoint x="510" y="770" as="targetPoint" />
            <Array as="points">
              <mxPoint x="1000" y="610" />
              <mxPoint x="1000" y="770" />
              <mxPoint x="510" y="770" />
              <mxPoint x="510" y="477" />
            </Array>
          </mxGeometry>
        </mxCell>
        <mxCell id="_V3Y3eylf52kLlvXlaU1-252" value="" style="endArrow=classic;html=1;shadow=0;fontSize=16;entryX=0.89;entryY=0.89;entryDx=0;entryDy=0;entryPerimeter=0;" parent="1" target="_V3Y3eylf52kLlvXlaU1-112" edge="1">
          <mxGeometry width="50" height="50" relative="1" as="geometry">
            <mxPoint x="625" y="740" as="sourcePoint" />
            <mxPoint x="675" y="690" as="targetPoint" />
            <Array as="points">
              <mxPoint x="740" y="740" />
              <mxPoint x="740" y="350" />
            </Array>
          </mxGeometry>
        </mxCell>
        <mxCell id="_V3Y3eylf52kLlvXlaU1-253" value="Exception" style="rounded=0;whiteSpace=wrap;html=1;fontSize=16;" parent="1" vertex="1">
          <mxGeometry x="1290" y="60" width="70" height="60" as="geometry" />
        </mxCell>
        <mxCell id="_V3Y3eylf52kLlvXlaU1-254" value="" style="endArrow=classic;html=1;shadow=0;fontSize=16;entryX=0.25;entryY=1;entryDx=0;entryDy=0;" parent="1" target="_V3Y3eylf52kLlvXlaU1-253" edge="1">
          <mxGeometry width="50" height="50" relative="1" as="geometry">
            <mxPoint x="1169" y="320" as="sourcePoint" />
            <mxPoint x="1219" y="270" as="targetPoint" />
            <Array as="points">
              <mxPoint x="1200" y="320" />
              <mxPoint x="1200" y="210" />
              <mxPoint x="1308" y="210" />
            </Array>
          </mxGeometry>
        </mxCell>
        <mxCell id="_V3Y3eylf52kLlvXlaU1-255" value="overflow" style="edgeLabel;html=1;align=center;verticalAlign=middle;resizable=0;points=[];fontSize=16;" parent="_V3Y3eylf52kLlvXlaU1-254" vertex="1" connectable="0">
          <mxGeometry x="-0.6096" y="-6" relative="1" as="geometry">
            <mxPoint as="offset" />
          </mxGeometry>
        </mxCell>
        <mxCell id="_V3Y3eylf52kLlvXlaU1-256" value="" style="endArrow=classic;html=1;shadow=0;fontSize=16;startArrow=oval;startFill=1;" parent="1" edge="1">
          <mxGeometry width="50" height="50" relative="1" as="geometry">
            <mxPoint x="1230" y="330" as="sourcePoint" />
            <mxPoint x="1343" y="230" as="targetPoint" />
            <Array as="points">
              <mxPoint x="1230" y="250" />
              <mxPoint x="1343" y="250" />
            </Array>
          </mxGeometry>
        </mxCell>
        <mxCell id="_V3Y3eylf52kLlvXlaU1-257" value="" style="endArrow=classic;html=1;shadow=0;fontSize=16;entryX=1;entryY=0.25;entryDx=0;entryDy=0;" parent="1" target="_V3Y3eylf52kLlvXlaU1-129" edge="1">
          <mxGeometry width="50" height="50" relative="1" as="geometry">
            <mxPoint x="1330" y="60" as="sourcePoint" />
            <mxPoint x="1380" y="10" as="targetPoint" />
            <Array as="points">
              <mxPoint x="1330" y="50" />
            </Array>
          </mxGeometry>
        </mxCell>
        <mxCell id="_V3Y3eylf52kLlvXlaU1-258" value="" style="endArrow=classic;html=1;shadow=0;fontSize=16;" parent="1" edge="1">
          <mxGeometry width="50" height="50" relative="1" as="geometry">
            <mxPoint x="370" y="100" as="sourcePoint" />
            <mxPoint x="370" y="180" as="targetPoint" />
          </mxGeometry>
        </mxCell>
        <mxCell id="_V3Y3eylf52kLlvXlaU1-259" value="flush" style="edgeLabel;html=1;align=center;verticalAlign=middle;resizable=0;points=[];fontSize=16;" parent="_V3Y3eylf52kLlvXlaU1-258" vertex="1" connectable="0">
          <mxGeometry x="-0.5853" y="-3" relative="1" as="geometry">
            <mxPoint x="-17" y="43.53" as="offset" />
          </mxGeometry>
        </mxCell>
        <mxCell id="_V3Y3eylf52kLlvXlaU1-260" value="" style="endArrow=classic;html=1;shadow=0;fontSize=16;exitX=0.5;exitY=1;exitDx=0;exitDy=0;" parent="1" source="_V3Y3eylf52kLlvXlaU1-129" edge="1">
          <mxGeometry width="50" height="50" relative="1" as="geometry">
            <mxPoint x="900" y="210" as="sourcePoint" />
            <mxPoint x="950" y="160" as="targetPoint" />
            <Array as="points">
              <mxPoint x="410" y="110" />
              <mxPoint x="950" y="110" />
            </Array>
          </mxGeometry>
        </mxCell>
        <mxCell id="_V3Y3eylf52kLlvXlaU1-261" value="flush" style="edgeLabel;html=1;align=center;verticalAlign=middle;resizable=0;points=[];fontSize=16;" parent="_V3Y3eylf52kLlvXlaU1-260" vertex="1" connectable="0">
          <mxGeometry x="0.7573" y="-1" relative="1" as="geometry">
            <mxPoint x="32.94" y="-11" as="offset" />
          </mxGeometry>
        </mxCell>
        <mxCell id="_V3Y3eylf52kLlvXlaU1-262" value="" style="endArrow=classic;html=1;shadow=0;fontSize=16;" parent="1" edge="1">
          <mxGeometry width="50" height="50" relative="1" as="geometry">
            <mxPoint x="590" y="820" as="sourcePoint" />
            <mxPoint x="590" y="760" as="targetPoint" />
          </mxGeometry>
        </mxCell>
        <mxCell id="_V3Y3eylf52kLlvXlaU1-263" value="PC/PC+4" style="text;html=1;strokeColor=none;fillColor=none;align=center;verticalAlign=middle;whiteSpace=wrap;rounded=0;fontSize=16;" parent="1" vertex="1">
          <mxGeometry x="603" y="820" width="40" height="20" as="geometry" />
        </mxCell>
        <mxCell id="zos29l6biF-JjCLQQ9S4-1" value="" style="endArrow=classic;html=1;shadow=0;fontSize=16;" parent="1" edge="1">
          <mxGeometry width="50" height="50" relative="1" as="geometry">
            <mxPoint x="1240" y="100" as="sourcePoint" />
            <mxPoint x="1290" y="100" as="targetPoint" />
          </mxGeometry>
        </mxCell>
        <mxCell id="zos29l6biF-JjCLQQ9S4-2" value="trap" style="edgeLabel;html=1;align=center;verticalAlign=middle;resizable=0;points=[];fontSize=16;" parent="zos29l6biF-JjCLQQ9S4-1" vertex="1" connectable="0">
          <mxGeometry x="-0.64" y="2" relative="1" as="geometry">
            <mxPoint as="offset" />
          </mxGeometry>
        </mxCell>
        <mxCell id="Jw1tPf1Lef2z33wg4XIM-1" value="&lt;font style=&quot;font-size: 16px&quot;&gt;Cause&lt;/font&gt;" style="rounded=0;whiteSpace=wrap;html=1;" parent="1" vertex="1">
          <mxGeometry x="1390" y="75" width="70" height="30" as="geometry" />
        </mxCell>
        <mxCell id="Jw1tPf1Lef2z33wg4XIM-2" value="" style="endArrow=classic;html=1;exitX=1;exitY=0.5;exitDx=0;exitDy=0;" parent="1" source="_V3Y3eylf52kLlvXlaU1-253" edge="1">
          <mxGeometry width="50" height="50" relative="1" as="geometry">
            <mxPoint x="1340" y="140" as="sourcePoint" />
            <mxPoint x="1390" y="90" as="targetPoint" />
          </mxGeometry>
        </mxCell>
        <mxCell id="Jw1tPf1Lef2z33wg4XIM-3" value="addrFault" style="rounded=0;whiteSpace=wrap;html=1;" parent="1" vertex="1">
          <mxGeometry x="1317" y="180" width="60" height="50" as="geometry" />
        </mxCell>
        <mxCell id="Jw1tPf1Lef2z33wg4XIM-4" value="" style="endArrow=classic;html=1;exitX=0.383;exitY=-0.04;exitDx=0;exitDy=0;exitPerimeter=0;" parent="1" source="Jw1tPf1Lef2z33wg4XIM-3" edge="1">
          <mxGeometry width="50" height="50" relative="1" as="geometry">
            <mxPoint x="1290" y="170" as="sourcePoint" />
            <mxPoint x="1340" y="120" as="targetPoint" />
          </mxGeometry>
        </mxCell>
        <mxCell id="iR0amQ2dOCgBaDfl7aj8-1" value="" style="endArrow=classic;html=1;entryX=0.274;entryY=1.007;entryDx=0;entryDy=0;entryPerimeter=0;" edge="1" parent="1" target="_V3Y3eylf52kLlvXlaU1-135">
          <mxGeometry width="50" height="50" relative="1" as="geometry">
            <mxPoint x="860" y="320" as="sourcePoint" />
            <mxPoint x="910" y="270" as="targetPoint" />
          </mxGeometry>
        </mxCell>
        <mxCell id="iR0amQ2dOCgBaDfl7aj8-2" value="" style="endArrow=classic;html=1;entryX=1;entryY=0.5;entryDx=0;entryDy=0;" edge="1" parent="1" target="_V3Y3eylf52kLlvXlaU1-129">
          <mxGeometry width="50" height="50" relative="1" as="geometry">
            <mxPoint x="960" y="320" as="sourcePoint" />
            <mxPoint x="1010" y="270" as="targetPoint" />
            <Array as="points">
              <mxPoint x="1020" y="320" />
              <mxPoint x="1020" y="70" />
            </Array>
          </mxGeometry>
        </mxCell>
      </root>
    </mxGraphModel>
  </diagram>
</mxfile>
